<?xml version="1.0" encoding="UTF-8"?>
<svg width="184" height="54" viewBox="0 0 184 54" version="1.1" xmlns="http://www.w3.org/2000/svg"
     xmlns:xlink="http://www.w3.org/1999/xlink">
    <g stroke="none" stroke-width="1" fill="none" fill-rule="evenodd">
        <g transform="translate(-130.000000, -73.000000)">
            <g transform="translate(130.000000, 73.000000)">
                <rect stroke="rgb(124, 58, 237)" stroke-width="1" fill="#FFFFFF" x="0.5" y="0.5" width="180" height="53"
                      rx="10"></rect>
                <text font-family="Helvetica-Bold, Helvetica" font-size="9" font-weight="bold"
                      fill="rgb(124, 58, 237)">
                    <tspan x="53" y="20">FEATURED ON</tspan>
                </text>
                <text font-family="Helvetica-Bold, Helvetica" font-size="21" font-weight="bold"
                      fill="rgb(124, 58, 237)">
                    <tspan x="52" y="40">Starter Best</tspan>
                </text>
                <g transform="translate(120.000000, 7.000000)" fill="rgb(124, 58, 237)">
                    <g>
                        <polygon points="15 13 20 13 17.5 6"></polygon>
                    </g>
                </g>

                <g transform="translate(12.000000, 12.000000)">
                    <path d="M31,15.5 C31,24.0603917 24.0603917,31 15.5,31 C6.93960833,31 0,24.0603917 0,15.5 C0,6.93960833 6.93960833,0 15.5,0 C24.0603917,0 31,6.93960833 31,15.5"
                          fill="rgb(124, 58, 237)"></path>
                    <g transform="translate(4, 4) scale(1.5)">
                        <path fill="#FFFFFF" fill-rule="evenodd"
                              d="m6.854 3.854l.8-.8c.644-.645 1.775-1.092 2.898-1.253a5.342 5.342 0 0 1 1.504-.02c.443.066.714.196.84.323c.127.126.257.397.323.84c.064.427.059.95-.02 1.504c-.16 1.123-.608 2.254-1.253 2.898L7.5 11.793l-1.146-1.146a.5.5 0 1 0-.708.707l1.5 1.5a.5.5 0 0 0 .708 0l.547-.548l1.17 1.951a.5.5 0 0 0 .783.097l2-2a.5.5 0 0 0 .141-.425l-.465-3.252l.624-.623c.855-.856 1.358-2.225 1.535-3.465c.09-.627.1-1.25.019-1.794c-.08-.528-.256-1.05-.604-1.399c-.349-.348-.871-.525-1.4-.604a6.333 6.333 0 0 0-1.793.02C9.17.987 7.8 1.49 6.946 2.345l-.623.624l-3.252-.465a.5.5 0 0 0-.425.141l-2 2a.5.5 0 0 0 .097.783l1.95 1.17l-.547.547a.5.5 0 0 0 0 .708l1.5 1.5a.5.5 0 1 0 .708-.708L3.207 7.5l.647-.646l3-3Zm3.245 9.34l-.97-1.617l2.017-2.016l.324 2.262l-1.37 1.37ZM3.423 5.87l2.016-2.016l-2.262-.324l-1.37 1.37l1.616.97Zm-1.07 4.484a.5.5 0 1 0-.707-.708l-1 1a.5.5 0 1 0 .708.707l1-1Zm1.5 1.5a.5.5 0 1 0-.707-.707l-2 2a.5.5 0 0 0 .708.707l2-2Zm1.5 1.5a.5.5 0 1 0-.707-.708l-1 1a.5.5 0 1 0 .708.707l1-1ZM9.5 6.748a1.249 1.249 0 1 0 0-2.498a1.249 1.249 0 0 0 0 2.498Z"
                              clip-rule="evenodd"
                              stroke-width="4"/>
                    </g>
                </g>
            </g>
        </g>
    </g>
</svg>
