<svg xmlns="http://www.w3.org/2000/svg" viewBox="0 0 600 500" fill="none">
  <defs>
    <linearGradient id="bgGrad" x1="0" y1="0" x2="600" y2="500" gradientUnits="userSpaceOnUse">
      <stop offset="0%" stop-color="#f5f3ff"/>
      <stop offset="100%" stop-color="#eff6ff"/>
    </linearGradient>
    <filter id="cardShadow" x="-10%" y="-5%" width="120%" height="115%">
      <feDropShadow dx="0" dy="4" stdDeviation="12" flood-color="#000" flood-opacity="0.08"/>
    </filter>
    <filter id="smShadow" x="-10%" y="-10%" width="120%" height="130%">
      <feDropShadow dx="0" dy="2" stdDeviation="4" flood-color="#000" flood-opacity="0.06"/>
    </filter>
  </defs>

  <!-- Background -->
  <rect width="600" height="500" rx="24" fill="url(#bgGrad)"/>

  <!-- Subtle grid -->
  <g opacity="0.03" stroke="#7c3aed" stroke-width="1">
    <line x1="0" y1="100" x2="600" y2="100"/><line x1="0" y1="200" x2="600" y2="200"/>
    <line x1="0" y1="300" x2="600" y2="300"/><line x1="0" y1="400" x2="600" y2="400"/>
    <line x1="100" y1="0" x2="100" y2="500"/><line x1="200" y1="0" x2="200" y2="500"/>
    <line x1="300" y1="0" x2="300" y2="500"/><line x1="400" y1="0" x2="400" y2="500"/>
    <line x1="500" y1="0" x2="500" y2="500"/>
  </g>

  <!-- Decorative circles -->
  <circle cx="80" cy="60" r="35" fill="#7c3aed" opacity="0.04"/>
  <circle cx="530" cy="440" r="40" fill="#3b82f6" opacity="0.04"/>

  <!-- Main card -->
  <g filter="url(#cardShadow)">
    <rect x="32" y="24" width="536" height="452" rx="16" fill="white"/>
  </g>

  <!-- Header: entity mapping -->
  <rect x="48" y="40" width="504" height="52" rx="10" fill="#f8f7ff"/>

  <!-- Checkbox -->
  <rect x="60" y="54" width="24" height="24" rx="6" fill="#7c3aed"/>
  <polyline points="67,66 72,71 79,62" fill="none" stroke="white" stroke-width="2.5" stroke-linecap="round" stroke-linejoin="round"/>

  <text x="94" y="72" font-family="system-ui, -apple-system, sans-serif" font-size="15" font-weight="700" fill="#1e293b">Employees</text>
  <text x="188" y="72" font-family="system-ui, -apple-system, sans-serif" font-size="13" fill="#94a3b8" font-weight="500">&#8594;</text>
  <text x="204" y="72" font-family="system-ui, -apple-system, sans-serif" font-size="15" font-weight="600" fill="#7c3aed">Employees</text>

  <!-- Badges -->
  <rect x="340" y="52" width="104" height="28" rx="14" fill="#f3f4f6" stroke="#e5e7eb" stroke-width="1"/>
  <text x="358" y="71" font-family="system-ui, -apple-system, sans-serif" font-size="11" font-weight="600" fill="#374151">Direct Mapping</text>
  <rect x="452" y="52" width="84" height="28" rx="14" fill="#f3f4f6" stroke="#e5e7eb" stroke-width="1"/>
  <text x="466" y="71" font-family="system-ui, -apple-system, sans-serif" font-size="11" font-weight="600" fill="#374151">Match: 95%</text>

  <!-- Column headers -->
  <text x="64" y="118" font-family="system-ui, -apple-system, sans-serif" font-size="11" fill="#94a3b8" font-weight="600" letter-spacing="0.03em">SOURCE COLUMN</text>
  <text x="310" y="118" font-family="system-ui, -apple-system, sans-serif" font-size="11" fill="#94a3b8" font-weight="600" letter-spacing="0.03em">TARGET COLUMN</text>
  <text x="482" y="118" font-family="system-ui, -apple-system, sans-serif" font-size="11" fill="#94a3b8" font-weight="600" letter-spacing="0.03em">CONFIDENCE</text>
  <line x1="48" y1="128" x2="552" y2="128" stroke="#f1f5f9" stroke-width="1"/>

  <!-- Row 1: First Name → First Name (98%) -->
  <rect x="64" y="142" width="108" height="32" rx="8" fill="#f8fafc" stroke="#e2e8f0" stroke-width="1"/>
  <text x="82" y="163" font-family="system-ui, -apple-system, sans-serif" font-size="13" fill="#334155" font-weight="500">First Name</text>
  <text x="256" y="163" font-family="system-ui, -apple-system, sans-serif" font-size="15" fill="#cbd5e1">&#8594;</text>
  <rect x="310" y="142" width="108" height="32" rx="8" fill="#f5f3ff" stroke="#e9e5ff" stroke-width="1"/>
  <text x="328" y="163" font-family="system-ui, -apple-system, sans-serif" font-size="13" fill="#7c3aed" font-weight="500">First Name</text>
  <text x="488" y="163" font-family="system-ui, -apple-system, sans-serif" font-size="12" fill="#10b981" font-weight="600">Match: 98%</text>

  <!-- Row 2: Email → Email (98%) -->
  <rect x="64" y="190" width="108" height="32" rx="8" fill="#f8fafc" stroke="#e2e8f0" stroke-width="1"/>
  <text x="98" y="211" font-family="system-ui, -apple-system, sans-serif" font-size="13" fill="#334155" font-weight="500">Email</text>
  <text x="256" y="211" font-family="system-ui, -apple-system, sans-serif" font-size="15" fill="#cbd5e1">&#8594;</text>
  <rect x="310" y="190" width="108" height="32" rx="8" fill="#f5f3ff" stroke="#e9e5ff" stroke-width="1"/>
  <text x="344" y="211" font-family="system-ui, -apple-system, sans-serif" font-size="13" fill="#7c3aed" font-weight="500">Email</text>
  <text x="488" y="211" font-family="system-ui, -apple-system, sans-serif" font-size="12" fill="#10b981" font-weight="600">Match: 98%</text>

  <!-- Row 3: Department → Department ID (85%) -->
  <rect x="64" y="238" width="120" height="32" rx="8" fill="#f8fafc" stroke="#e2e8f0" stroke-width="1"/>
  <text x="76" y="259" font-family="system-ui, -apple-system, sans-serif" font-size="13" fill="#334155" font-weight="500">Department</text>
  <text x="256" y="259" font-family="system-ui, -apple-system, sans-serif" font-size="15" fill="#cbd5e1">&#8594;</text>
  <rect x="310" y="238" width="132" height="32" rx="8" fill="#f5f3ff" stroke="#e9e5ff" stroke-width="1"/>
  <text x="322" y="259" font-family="system-ui, -apple-system, sans-serif" font-size="13" fill="#7c3aed" font-weight="500">Department ID</text>
  <text x="488" y="259" font-family="system-ui, -apple-system, sans-serif" font-size="12" fill="#f59e0b" font-weight="600">Match: 85%</text>

  <!-- Row 4: Job Title → Position (85%) -->
  <rect x="64" y="286" width="108" height="32" rx="8" fill="#f8fafc" stroke="#e2e8f0" stroke-width="1"/>
  <text x="84" y="307" font-family="system-ui, -apple-system, sans-serif" font-size="13" fill="#334155" font-weight="500">Job Title</text>
  <text x="256" y="307" font-family="system-ui, -apple-system, sans-serif" font-size="15" fill="#cbd5e1">&#8594;</text>
  <rect x="310" y="286" width="108" height="32" rx="8" fill="#f5f3ff" stroke="#e9e5ff" stroke-width="1"/>
  <text x="340" y="307" font-family="system-ui, -apple-system, sans-serif" font-size="13" fill="#7c3aed" font-weight="500">Position</text>
  <text x="488" y="307" font-family="system-ui, -apple-system, sans-serif" font-size="12" fill="#f59e0b" font-weight="600">Match: 85%</text>

  <!-- Row 5: Hourly Rate → Salary Amount (85%) -->
  <rect x="64" y="334" width="120" height="32" rx="8" fill="#f8fafc" stroke="#e2e8f0" stroke-width="1"/>
  <text x="80" y="355" font-family="system-ui, -apple-system, sans-serif" font-size="13" fill="#334155" font-weight="500">Hourly Rate</text>
  <text x="256" y="355" font-family="system-ui, -apple-system, sans-serif" font-size="15" fill="#cbd5e1">&#8594;</text>
  <rect x="310" y="334" width="132" height="32" rx="8" fill="#f5f3ff" stroke="#e9e5ff" stroke-width="1"/>
  <text x="322" y="355" font-family="system-ui, -apple-system, sans-serif" font-size="13" fill="#7c3aed" font-weight="500">Salary Amount</text>
  <text x="488" y="355" font-family="system-ui, -apple-system, sans-serif" font-size="12" fill="#f59e0b" font-weight="600">Match: 85%</text>

  <!-- Row 6: Hire Date → Hire Date (98%) -->
  <rect x="64" y="382" width="108" height="32" rx="8" fill="#f8fafc" stroke="#e2e8f0" stroke-width="1"/>
  <text x="84" y="403" font-family="system-ui, -apple-system, sans-serif" font-size="13" fill="#334155" font-weight="500">Hire Date</text>
  <text x="256" y="403" font-family="system-ui, -apple-system, sans-serif" font-size="15" fill="#cbd5e1">&#8594;</text>
  <rect x="310" y="382" width="108" height="32" rx="8" fill="#f5f3ff" stroke="#e9e5ff" stroke-width="1"/>
  <text x="332" y="403" font-family="system-ui, -apple-system, sans-serif" font-size="13" fill="#7c3aed" font-weight="500">Hire Date</text>
  <text x="488" y="403" font-family="system-ui, -apple-system, sans-serif" font-size="12" fill="#10b981" font-weight="600">Match: 98%</text>

  <!-- Bottom bar -->
  <line x1="48" y1="430" x2="552" y2="430" stroke="#f1f5f9" stroke-width="1"/>
  <text x="64" y="456" font-family="system-ui, -apple-system, sans-serif" font-size="12" fill="#94a3b8" dominant-baseline="central">5 rows &#8212; 10 columns mapped</text>

  <!-- Accept button -->
  <rect x="430" y="440" width="116" height="32" rx="8" fill="#3b82f6"/>
  <text x="488" y="456" font-family="system-ui, -apple-system, sans-serif" font-size="12" font-weight="600" fill="white" text-anchor="middle" dominant-baseline="central">Accept &amp; Import</text>
</svg>