<svg xmlns="http://www.w3.org/2000/svg" viewBox="0 0 600 540" fill="none">
  <defs>
    <linearGradient id="bgGrad4" x1="0" y1="0" x2="600" y2="500" gradientUnits="userSpaceOnUse">
      <stop offset="0%" stop-color="#faf5ff"/>
      <stop offset="100%" stop-color="#eff6ff"/>
    </linearGradient>
    <linearGradient id="seasonLine" x1="0" y1="0" x2="1" y2="0">
      <stop offset="0%" stop-color="#8b5cf6"/>
      <stop offset="100%" stop-color="#3b82f6"/>
    </linearGradient>
    <linearGradient id="seasonFill" x1="0" y1="0" x2="0" y2="1">
      <stop offset="0%" stop-color="#8b5cf6" stop-opacity="0.12"/>
      <stop offset="100%" stop-color="#8b5cf6" stop-opacity="0.01"/>
    </linearGradient>
    <filter id="cardShadow4" x="-10%" y="-5%" width="120%" height="115%">
      <feDropShadow dx="0" dy="4" stdDeviation="12" flood-color="#000" flood-opacity="0.08"/>
    </filter>
    <filter id="smallShadow4" x="-10%" y="-10%" width="120%" height="130%">
      <feDropShadow dx="0" dy="2" stdDeviation="4" flood-color="#000" flood-opacity="0.05"/>
    </filter>
  </defs>

  <!-- Background -->
  <rect width="600" height="540" rx="24" fill="url(#bgGrad4)"/>

  <!-- Subtle grid -->
  <g opacity="0.03" stroke="#8b5cf6" stroke-width="1">
    <line x1="0" y1="100" x2="600" y2="100"/><line x1="0" y1="200" x2="600" y2="200"/>
    <line x1="0" y1="300" x2="600" y2="300"/><line x1="0" y1="400" x2="600" y2="400"/>
    <line x1="100" y1="0" x2="100" y2="500"/><line x1="200" y1="0" x2="200" y2="500"/>
    <line x1="300" y1="0" x2="300" y2="500"/><line x1="400" y1="0" x2="400" y2="500"/>
    <line x1="500" y1="0" x2="500" y2="500"/>
  </g>

  <!-- Main card -->
  <g filter="url(#cardShadow4)">
    <rect x="32" y="24" width="536" height="492" rx="16" fill="white"/>
  </g>

  <!-- Title -->
  <text x="56" y="58" font-family="system-ui, -apple-system, sans-serif" font-size="17" font-weight="700" fill="#1e293b">How Predictions Work</text>
  <text x="56" y="76" font-family="system-ui, -apple-system, sans-serif" font-size="11" fill="#94a3b8">Smart forecasting powered by machine learning</text>

  <!-- Seasonal Pattern Chart -->
  <g filter="url(#smallShadow4)">
    <rect x="48" y="94" width="504" height="180" rx="12" fill="white" stroke="#e2e8f0" stroke-width="1"/>
  </g>

  <!-- Chart title -->
  <rect x="60" y="108" width="28" height="28" rx="7" fill="#faf5ff"/>
  <circle cx="74" cy="122" r="8" fill="none" stroke="#8b5cf6" stroke-width="1.5"/>
  <polyline points="74,118 74,122 77,124" fill="none" stroke="#8b5cf6" stroke-width="1.5" stroke-linecap="round"/>
  <text x="96" y="126" font-family="system-ui, -apple-system, sans-serif" font-size="12" font-weight="600" fill="#1e293b">Seasonal Pattern Detection</text>

  <!-- Pattern label -->
  <rect x="380" y="108" width="160" height="24" rx="6" fill="#f0fdf4" stroke="#bbf7d0" stroke-width="1"/>
  <text x="460" y="124" font-family="system-ui, -apple-system, sans-serif" font-size="9" font-weight="600" fill="#10b981" text-anchor="middle">Bi-monthly cycle detected</text>

  <!-- Y-axis labels -->
  <text x="60" y="158" font-family="system-ui, -apple-system, sans-serif" font-size="8" fill="#94a3b8">High</text>
  <text x="60" y="200" font-family="system-ui, -apple-system, sans-serif" font-size="8" fill="#94a3b8">Avg</text>
  <text x="60" y="242" font-family="system-ui, -apple-system, sans-serif" font-size="8" fill="#94a3b8">Low</text>

  <!-- Chart grid -->
  <g stroke="#e2e8f0" stroke-width="0.5" opacity="0.5">
    <line x1="88" y1="154" x2="540" y2="154"/>
    <line x1="88" y1="196" x2="540" y2="196"/>
    <line x1="88" y1="238" x2="540" y2="238"/>
  </g>

  <!-- Seasonal wave pattern (sinusoidal) -->
  <path d="M88 196 C110 162, 130 155, 150 165 C170 175, 185 215, 210 230 C235 245, 250 235, 270 196 C290 157, 310 150, 330 162 C350 174, 365 218, 390 232 C415 246, 430 230, 450 196 C470 162, 488 155, 510 168"
        stroke="url(#seasonLine)" stroke-width="2.5" fill="none" stroke-linecap="round"/>

  <!-- Area fill -->
  <path d="M88 196 C110 162, 130 155, 150 165 C170 175, 185 215, 210 230 C235 245, 250 235, 270 196 C290 157, 310 150, 330 162 C350 174, 365 218, 390 232 C415 246, 430 230, 450 196 C470 162, 488 155, 510 168 L510 250 L88 250 Z"
        fill="url(#seasonFill)"/>

  <!-- Peak annotations -->
  <line x1="150" y1="155" x2="150" y2="165" stroke="#8b5cf6" stroke-width="1" stroke-dasharray="2 2"/>
  <text x="150" y="150" font-family="system-ui, -apple-system, sans-serif" font-size="8" fill="#8b5cf6" text-anchor="middle" font-weight="600">Peak</text>

  <line x1="330" y1="152" x2="330" y2="162" stroke="#8b5cf6" stroke-width="1" stroke-dasharray="2 2"/>
  <text x="330" y="148" font-family="system-ui, -apple-system, sans-serif" font-size="8" fill="#8b5cf6" text-anchor="middle" font-weight="600">Peak</text>

  <line x1="510" y1="158" x2="510" y2="168" stroke="#8b5cf6" stroke-width="1" stroke-dasharray="2 2"/>
  <text x="510" y="154" font-family="system-ui, -apple-system, sans-serif" font-size="8" fill="#8b5cf6" text-anchor="middle" font-weight="600">Peak</text>

  <!-- Trough annotations -->
  <text x="210" y="254" font-family="system-ui, -apple-system, sans-serif" font-size="8" fill="#94a3b8" text-anchor="middle">Trough</text>
  <text x="390" y="254" font-family="system-ui, -apple-system, sans-serif" font-size="8" fill="#94a3b8" text-anchor="middle">Trough</text>

  <!-- X-axis months -->
  <text x="110" y="264" font-family="system-ui, -apple-system, sans-serif" font-size="8" fill="#94a3b8" text-anchor="middle">Jul</text>
  <text x="170" y="264" font-family="system-ui, -apple-system, sans-serif" font-size="8" fill="#94a3b8" text-anchor="middle">Sep</text>
  <text x="230" y="264" font-family="system-ui, -apple-system, sans-serif" font-size="8" fill="#94a3b8" text-anchor="middle">Nov</text>
  <text x="290" y="264" font-family="system-ui, -apple-system, sans-serif" font-size="8" fill="#94a3b8" text-anchor="middle">Jan</text>
  <text x="350" y="264" font-family="system-ui, -apple-system, sans-serif" font-size="8" fill="#94a3b8" text-anchor="middle">Mar</text>
  <text x="410" y="264" font-family="system-ui, -apple-system, sans-serif" font-size="8" fill="#94a3b8" text-anchor="middle">May</text>
  <text x="470" y="264" font-family="system-ui, -apple-system, sans-serif" font-size="8" fill="#94a3b8" text-anchor="middle">Jul</text>
  <text x="520" y="264" font-family="system-ui, -apple-system, sans-serif" font-size="8" fill="#94a3b8" text-anchor="middle">Sep</text>

  <!-- Capability cards row -->
  <!-- Card 1: Trend Analysis -->
  <g filter="url(#smallShadow4)">
    <rect x="48" y="292" width="156" height="96" rx="10" fill="white" stroke="#e2e8f0" stroke-width="1"/>
  </g>
  <rect x="60" y="306" width="28" height="28" rx="7" fill="#ecfdf5"/>
  <polyline points="66,324 70,318 74,320 80,312" fill="none" stroke="#10b981" stroke-width="2" stroke-linecap="round" stroke-linejoin="round"/>
  <polyline points="76,312 80,312 80,316" fill="none" stroke="#10b981" stroke-width="2" stroke-linecap="round" stroke-linejoin="round"/>
  <text x="60" y="352" font-family="system-ui, -apple-system, sans-serif" font-size="10" font-weight="600" fill="#1e293b">Trend Analysis</text>
  <text x="60" y="366" font-family="system-ui, -apple-system, sans-serif" font-size="8.5" fill="#64748b">Detects growth, stability,</text>
  <text x="60" y="377" font-family="system-ui, -apple-system, sans-serif" font-size="8.5" fill="#64748b">or decline in your data</text>

  <!-- Card 2: Model Selection -->
  <g filter="url(#smallShadow4)">
    <rect x="222" y="292" width="156" height="96" rx="10" fill="white" stroke="#e2e8f0" stroke-width="1"/>
  </g>
  <rect x="234" y="306" width="28" height="28" rx="7" fill="#eff6ff"/>
  <rect x="240" y="312" width="6" height="16" rx="1" fill="#3b82f6"/>
  <rect x="248" y="316" width="6" height="12" rx="1" fill="#3b82f6" opacity="0.7"/>
  <rect x="256" y="308" width="6" height="20" rx="1" fill="#3b82f6" opacity="0.5"/>
  <text x="234" y="352" font-family="system-ui, -apple-system, sans-serif" font-size="10" font-weight="600" fill="#1e293b">Adaptive Learning</text>
  <text x="234" y="366" font-family="system-ui, -apple-system, sans-serif" font-size="8.5" fill="#64748b">Auto-selects the best</text>
  <text x="234" y="377" font-family="system-ui, -apple-system, sans-serif" font-size="8.5" fill="#64748b">model for your data</text>

  <!-- Card 3: Confidence Scoring -->
  <g filter="url(#smallShadow4)">
    <rect x="396" y="292" width="156" height="96" rx="10" fill="white" stroke="#e2e8f0" stroke-width="1"/>
  </g>
  <rect x="408" y="306" width="28" height="28" rx="7" fill="#fef3c7"/>
  <circle cx="422" cy="320" r="8" fill="none" stroke="#f59e0b" stroke-width="2"/>
  <path d="M422 316v4l2.5 1.5" stroke="#f59e0b" stroke-width="1.5" fill="none" stroke-linecap="round"/>
  <text x="408" y="352" font-family="system-ui, -apple-system, sans-serif" font-size="10" font-weight="600" fill="#1e293b">Confidence Scoring</text>
  <text x="408" y="366" font-family="system-ui, -apple-system, sans-serif" font-size="8.5" fill="#64748b">Shows reliability of each</text>
  <text x="408" y="377" font-family="system-ui, -apple-system, sans-serif" font-size="8.5" fill="#64748b">prediction (Low / Med / High)</text>

  <!-- Model info bar -->
  <rect x="48" y="406" width="504" height="68" rx="10" fill="#faf5ff" stroke="#e9d5ff" stroke-width="1"/>

  <text x="68" y="430" font-family="system-ui, -apple-system, sans-serif" font-size="10" font-weight="600" fill="#475569">Active Model:</text>
  <rect x="152" y="418" width="146" height="20" rx="5" fill="#8b5cf6"/>
  <text x="225" y="432" font-family="system-ui, -apple-system, sans-serif" font-size="9" font-weight="600" fill="white" text-anchor="middle">Holt-Winters Additive</text>

  <text x="316" y="430" font-family="system-ui, -apple-system, sans-serif" font-size="10" font-weight="600" fill="#475569">Data:</text>
  <text x="348" y="430" font-family="system-ui, -apple-system, sans-serif" font-size="10" fill="#64748b">13 months</text>

  <text x="428" y="430" font-family="system-ui, -apple-system, sans-serif" font-size="10" font-weight="600" fill="#475569">Accuracy:</text>
  <text x="488" y="430" font-family="system-ui, -apple-system, sans-serif" font-size="10" font-weight="700" fill="#10b981">88%</text>

  <text x="68" y="460" font-family="system-ui, -apple-system, sans-serif" font-size="9" fill="#64748b">The system automatically evaluates multiple algorithms and selects the one with the best historical accuracy for your business data.</text>
</svg>