<svg xmlns="http://www.w3.org/2000/svg" viewBox="0 0 600 500" fill="none">
  <defs>
    <linearGradient id="bsiBg" x1="0" y1="0" x2="600" y2="500" gradientUnits="userSpaceOnUse">
      <stop offset="0%" stop-color="#f5f3ff"/>
      <stop offset="100%" stop-color="#eff6ff"/>
    </linearGradient>
    <filter id="bsiShadow" x="-10%" y="-5%" width="120%" height="115%">
      <feDropShadow dx="0" dy="4" stdDeviation="12" flood-color="#000" flood-opacity="0.08"/>
    </filter>
  </defs>

  <rect width="600" height="500" rx="24" fill="url(#bsiBg)"/>

  <g opacity="0.03" stroke="#7c3aed" stroke-width="1">
    <line x1="0" y1="100" x2="600" y2="100"/><line x1="0" y1="200" x2="600" y2="200"/>
    <line x1="0" y1="300" x2="600" y2="300"/><line x1="0" y1="400" x2="600" y2="400"/>
    <line x1="100" y1="0" x2="100" y2="500"/><line x1="200" y1="0" x2="200" y2="500"/>
    <line x1="300" y1="0" x2="300" y2="500"/><line x1="400" y1="0" x2="400" y2="500"/>
    <line x1="500" y1="0" x2="500" y2="500"/>
  </g>
  <circle cx="540" cy="70" r="45" fill="#7c3aed" opacity="0.04"/>
  <circle cx="60" cy="430" r="35" fill="#3b82f6" opacity="0.04"/>

  <!-- Card -->
  <g filter="url(#bsiShadow)">
    <rect x="32" y="24" width="536" height="452" rx="16" fill="white"/>
  </g>

  <!-- Header -->
  <circle cx="66" cy="56" r="18" fill="#f5f3ff"/>
  <g stroke="#7c3aed" stroke-width="1.8" stroke-linecap="round" fill="none">
    <line x1="58" y1="64" x2="74" y2="64"/>
    <line x1="58" y1="58" x2="74" y2="58"/>
    <polyline points="60,54 66,50 72,54"/>
    <line x1="60" y1="58" x2="60" y2="64"/><line x1="72" y1="58" x2="72" y2="64"/>
    <line x1="66" y1="58" x2="66" y2="64"/>
  </g>
  <text x="92" y="52" font-family="system-ui, -apple-system, sans-serif" font-size="16" font-weight="700" fill="#1e293b">Import Bank Statement</text>
  <text x="92" y="70" font-family="system-ui, -apple-system, sans-serif" font-size="11" fill="#64748b">chase_statement.pdf &#8212; 42 transactions</text>

  <!-- AI badge -->
  <rect x="424" y="38" width="114" height="24" rx="12" fill="#f5f3ff" stroke="#ddd6fe" stroke-width="1"/>
  <path d="M439 43 L433 51 L437 51 L435 59 L443 49 L438 49 L440 43 Z" fill="#7c3aed"/>
  <text x="452" y="50.5" font-family="system-ui, -apple-system, sans-serif" font-size="10.5" font-weight="600" fill="#7c3aed" dominant-baseline="central">AI categorized</text>

  <!-- Column labels -->
  <text x="64" y="104" font-family="system-ui, -apple-system, sans-serif" font-size="10" font-weight="600" letter-spacing="0.5" fill="#94a3b8">TRANSACTION</text>
  <text x="318" y="104" font-family="system-ui, -apple-system, sans-serif" font-size="10" font-weight="600" letter-spacing="0.5" fill="#94a3b8" text-anchor="middle">TYPE</text>
  <text x="412" y="104" font-family="system-ui, -apple-system, sans-serif" font-size="10" font-weight="600" letter-spacing="0.5" fill="#94a3b8" text-anchor="middle">CATEGORY</text>
  <text x="540" y="104" font-family="system-ui, -apple-system, sans-serif" font-size="10" font-weight="600" letter-spacing="0.5" fill="#94a3b8" text-anchor="end">AMOUNT</text>

  <!-- Row 1 : expense -->
  <rect x="48" y="114" width="504" height="56" rx="10" fill="#f8fafc" stroke="#e2e8f0" stroke-width="1"/>
  <text x="64" y="137" font-family="system-ui, -apple-system, sans-serif" font-size="13" font-weight="600" fill="#1e293b">SQ *BLUE BOTTLE COFFEE</text>
  <text x="64" y="155" font-family="system-ui, -apple-system, sans-serif" font-size="10.5" fill="#94a3b8">Jul 2, 2026</text>
  <rect x="280" y="130" width="76" height="24" rx="12" fill="#fff7ed" stroke="#fed7aa" stroke-width="1"/>
  <text x="318" y="142" font-family="system-ui, -apple-system, sans-serif" font-size="11" font-weight="600" fill="#c2410b" text-anchor="middle" dominant-baseline="central">Expense</text>
  <rect x="368" y="130" width="88" height="24" rx="12" fill="#eef2ff" stroke="#e0e7ff" stroke-width="1"/>
  <text x="412" y="142" font-family="system-ui, -apple-system, sans-serif" font-size="11" font-weight="600" fill="#4f46e5" text-anchor="middle" dominant-baseline="central">Meals</text>
  <text x="540" y="147" font-family="system-ui, -apple-system, sans-serif" font-size="13.5" font-weight="700" fill="#dc2626" text-anchor="end">&#8722;$18.40</text>

  <!-- Row 2 : revenue -->
  <rect x="48" y="176" width="504" height="56" rx="10" fill="#f8fafc" stroke="#e2e8f0" stroke-width="1"/>
  <text x="64" y="199" font-family="system-ui, -apple-system, sans-serif" font-size="13" font-weight="600" fill="#1e293b">ACH DEPOSIT &#8212; CLIENT LTD</text>
  <text x="64" y="217" font-family="system-ui, -apple-system, sans-serif" font-size="10.5" fill="#94a3b8">Jul 3, 2026</text>
  <rect x="280" y="192" width="76" height="24" rx="12" fill="#f0fdf4" stroke="#bbf7d0" stroke-width="1"/>
  <text x="318" y="204" font-family="system-ui, -apple-system, sans-serif" font-size="11" font-weight="600" fill="#16a34a" text-anchor="middle" dominant-baseline="central">Revenue</text>
  <rect x="368" y="192" width="88" height="24" rx="12" fill="#eef2ff" stroke="#e0e7ff" stroke-width="1"/>
  <text x="412" y="204" font-family="system-ui, -apple-system, sans-serif" font-size="11" font-weight="600" fill="#4f46e5" text-anchor="middle" dominant-baseline="central">Consulting</text>
  <text x="540" y="209" font-family="system-ui, -apple-system, sans-serif" font-size="13.5" font-weight="700" fill="#16a34a" text-anchor="end">+$1,250.00</text>

  <!-- Row 3 : expense -->
  <rect x="48" y="238" width="504" height="56" rx="10" fill="#f8fafc" stroke="#e2e8f0" stroke-width="1"/>
  <text x="64" y="261" font-family="system-ui, -apple-system, sans-serif" font-size="13" font-weight="600" fill="#1e293b">STAPLES #1123</text>
  <text x="64" y="279" font-family="system-ui, -apple-system, sans-serif" font-size="10.5" fill="#94a3b8">Jul 5, 2026</text>
  <rect x="280" y="254" width="76" height="24" rx="12" fill="#fff7ed" stroke="#fed7aa" stroke-width="1"/>
  <text x="318" y="266" font-family="system-ui, -apple-system, sans-serif" font-size="11" font-weight="600" fill="#c2410b" text-anchor="middle" dominant-baseline="central">Expense</text>
  <rect x="368" y="254" width="88" height="24" rx="12" fill="#eef2ff" stroke="#e0e7ff" stroke-width="1"/>
  <text x="412" y="266" font-family="system-ui, -apple-system, sans-serif" font-size="11" font-weight="600" fill="#4f46e5" text-anchor="middle" dominant-baseline="central">Office</text>
  <text x="540" y="271" font-family="system-ui, -apple-system, sans-serif" font-size="13.5" font-weight="700" fill="#dc2626" text-anchor="end">&#8722;$64.20</text>

  <!-- Row 4 : expense -->
  <rect x="48" y="300" width="504" height="56" rx="10" fill="#f8fafc" stroke="#e2e8f0" stroke-width="1"/>
  <text x="64" y="323" font-family="system-ui, -apple-system, sans-serif" font-size="13" font-weight="600" fill="#1e293b">VISA &#8212; ADOBE</text>
  <text x="64" y="341" font-family="system-ui, -apple-system, sans-serif" font-size="10.5" fill="#94a3b8">Jul 6, 2026</text>
  <rect x="280" y="316" width="76" height="24" rx="12" fill="#fff7ed" stroke="#fed7aa" stroke-width="1"/>
  <text x="318" y="328" font-family="system-ui, -apple-system, sans-serif" font-size="11" font-weight="600" fill="#c2410b" text-anchor="middle" dominant-baseline="central">Expense</text>
  <rect x="368" y="316" width="88" height="24" rx="12" fill="#eef2ff" stroke="#e0e7ff" stroke-width="1"/>
  <text x="412" y="328" font-family="system-ui, -apple-system, sans-serif" font-size="11" font-weight="600" fill="#4f46e5" text-anchor="middle" dominant-baseline="central">Software</text>
  <text x="540" y="333" font-family="system-ui, -apple-system, sans-serif" font-size="13.5" font-weight="700" fill="#dc2626" text-anchor="end">&#8722;$29.99</text>

  <!-- Footer -->
  <line x1="48" y1="404" x2="552" y2="404" stroke="#f1f5f9" stroke-width="1"/>
  <text x="64" y="440" font-family="system-ui, -apple-system, sans-serif" font-size="12" fill="#94a3b8" dominant-baseline="central">Review each line, then import them all at once.</text>
  <rect x="392" y="424" width="160" height="34" rx="9" fill="#3b82f6"/>
  <text x="472" y="441" font-family="system-ui, -apple-system, sans-serif" font-size="12.5" font-weight="600" fill="white" text-anchor="middle" dominant-baseline="central">Import 42 transactions</text>
</svg>
