<svg xmlns="http://www.w3.org/2000/svg" viewBox="0 0 600 500" fill="none">
  <defs>
    <linearGradient id="bsmBg" x1="0" y1="0" x2="600" y2="500" gradientUnits="userSpaceOnUse">
      <stop offset="0%" stop-color="#eff6ff"/>
      <stop offset="100%" stop-color="#f0fdf4"/>
    </linearGradient>
    <filter id="bsmShadow" x="-10%" y="-5%" width="120%" height="115%">
      <feDropShadow dx="0" dy="4" stdDeviation="12" flood-color="#000" flood-opacity="0.08"/>
    </filter>
  </defs>

  <rect width="600" height="500" rx="24" fill="url(#bsmBg)"/>
  <g opacity="0.03" stroke="#3b82f6" stroke-width="1">
    <line x1="0" y1="100" x2="600" y2="100"/><line x1="0" y1="200" x2="600" y2="200"/>
    <line x1="0" y1="300" x2="600" y2="300"/><line x1="0" y1="400" x2="600" y2="400"/>
    <line x1="100" y1="0" x2="100" y2="500"/><line x1="200" y1="0" x2="200" y2="500"/>
    <line x1="300" y1="0" x2="300" y2="500"/><line x1="400" y1="0" x2="400" y2="500"/>
    <line x1="500" y1="0" x2="500" y2="500"/>
  </g>
  <circle cx="540" cy="70" r="45" fill="#16a34a" opacity="0.04"/>
  <circle cx="60" cy="430" r="35" fill="#3b82f6" opacity="0.04"/>

  <g filter="url(#bsmShadow)">
    <rect x="32" y="24" width="536" height="452" rx="16" fill="white"/>
  </g>

  <!-- Header -->
  <circle cx="66" cy="56" r="18" fill="#eff6ff"/>
  <g stroke="#3b82f6" stroke-width="1.8" stroke-linecap="round" fill="none">
    <line x1="58" y1="64" x2="74" y2="64"/>
    <line x1="58" y1="58" x2="74" y2="58"/>
    <polyline points="60,54 66,50 72,54"/>
    <line x1="60" y1="58" x2="60" y2="64"/><line x1="72" y1="58" x2="72" y2="64"/>
    <line x1="66" y1="58" x2="66" y2="64"/>
  </g>
  <text x="92" y="52" font-family="system-ui, -apple-system, sans-serif" font-size="16" font-weight="700" fill="#1e293b">Bank Matching</text>
  <text x="92" y="70" font-family="system-ui, -apple-system, sans-serif" font-size="11" fill="#64748b">July 2026 statement, matched against your books</text>

  <!-- List / Calendar toggle -->
  <rect x="430" y="38" width="114" height="26" rx="13" fill="#f1f5f9"/>
  <text x="459" y="51" font-family="system-ui, -apple-system, sans-serif" font-size="11" font-weight="600" fill="#94a3b8" text-anchor="middle" dominant-baseline="central">List</text>
  <rect x="487" y="41" width="54" height="20" rx="10" fill="#3b82f6"/>
  <text x="514" y="51" font-family="system-ui, -apple-system, sans-serif" font-size="11" font-weight="600" fill="white" text-anchor="middle" dominant-baseline="central">Month</text>

  <!-- Stat tiles -->
  <rect x="48" y="86" width="160" height="58" rx="10" fill="#f0fdf4" stroke="#bbf7d0" stroke-width="1"/>
  <text x="128" y="108" font-family="system-ui, -apple-system, sans-serif" font-size="11" fill="#16a34a" font-weight="500" text-anchor="middle">Matched</text>
  <text x="128" y="134" font-family="system-ui, -apple-system, sans-serif" font-size="22" font-weight="700" fill="#16a34a" text-anchor="middle">38</text>

  <rect x="220" y="86" width="160" height="58" rx="10" fill="#fffbeb" stroke="#fde68a" stroke-width="1"/>
  <text x="300" y="108" font-family="system-ui, -apple-system, sans-serif" font-size="11" fill="#b45309" font-weight="500" text-anchor="middle">Suggested</text>
  <text x="300" y="134" font-family="system-ui, -apple-system, sans-serif" font-size="22" font-weight="700" fill="#b45309" text-anchor="middle">3</text>

  <rect x="392" y="86" width="160" height="58" rx="10" fill="#fef2f2" stroke="#fecaca" stroke-width="1"/>
  <text x="472" y="108" font-family="system-ui, -apple-system, sans-serif" font-size="11" fill="#b91c1c" font-weight="500" text-anchor="middle">Unmatched</text>
  <text x="472" y="134" font-family="system-ui, -apple-system, sans-serif" font-size="22" font-weight="700" fill="#b91c1c" text-anchor="middle">1</text>

  <!-- Calendar -->
  <text x="48" y="178" font-family="system-ui, -apple-system, sans-serif" font-size="13" font-weight="700" fill="#1e293b">July 2026</text>

  <g font-family="system-ui, -apple-system, sans-serif" font-size="10" font-weight="600" fill="#94a3b8" text-anchor="middle">
    <text x="81" y="200">S</text><text x="154" y="200">M</text><text x="227" y="200">T</text>
    <text x="300" y="200">W</text><text x="373" y="200">T</text><text x="446" y="200">F</text><text x="519" y="200">S</text>
  </g>

  <!-- Day cells -->
  <g font-family="system-ui, -apple-system, sans-serif" font-size="12" font-weight="600" text-anchor="middle">
    <!-- Row 0 -->
    <text x="300" y="224" fill="#94a3b8">1</text>
    <rect x="340" y="210" width="66" height="34" rx="8" fill="#f0fdf4"/><text x="373" y="224" fill="#166534">2</text><circle cx="373" cy="235" r="3" fill="#16a34a"/>
    <rect x="413" y="210" width="66" height="34" rx="8" fill="#f0fdf4"/><text x="446" y="224" fill="#166534">3</text><circle cx="446" cy="235" r="3" fill="#16a34a"/>
    <text x="519" y="224" fill="#94a3b8">4</text>
    <!-- Row 1 -->
    <rect x="48" y="251" width="66" height="34" rx="8" fill="#f0fdf4"/><text x="81" y="265" fill="#166534">5</text><circle cx="81" cy="276" r="3" fill="#16a34a"/>
    <rect x="121" y="251" width="66" height="34" rx="8" fill="#f0fdf4"/><text x="154" y="265" fill="#166534">6</text><circle cx="154" cy="276" r="3" fill="#16a34a"/>
    <rect x="194" y="251" width="66" height="34" rx="8" fill="#f0fdf4"/><text x="227" y="265" fill="#166534">7</text><circle cx="227" cy="276" r="3" fill="#16a34a"/>
    <rect x="267" y="251" width="66" height="34" rx="8" fill="#fffbeb"/><text x="300" y="265" fill="#b45309">8</text><circle cx="300" cy="276" r="3" fill="#f59e0b"/>
    <rect x="340" y="251" width="66" height="34" rx="8" fill="#f0fdf4"/><text x="373" y="265" fill="#166534">9</text><circle cx="373" cy="276" r="3" fill="#16a34a"/>
    <rect x="413" y="251" width="66" height="34" rx="8" fill="#f0fdf4"/><text x="446" y="265" fill="#166534">10</text><circle cx="446" cy="276" r="3" fill="#16a34a"/>
    <text x="519" y="265" fill="#94a3b8">11</text>
    <!-- Row 2 -->
    <rect x="48" y="292" width="66" height="34" rx="8" fill="#f0fdf4"/><text x="81" y="306" fill="#166534">12</text><circle cx="81" cy="317" r="3" fill="#16a34a"/>
    <rect x="121" y="292" width="66" height="34" rx="8" fill="#f0fdf4"/><text x="154" y="306" fill="#166534">13</text><circle cx="154" cy="317" r="3" fill="#16a34a"/>
    <text x="227" y="306" fill="#94a3b8">14</text>
    <rect x="267" y="292" width="66" height="34" rx="8" fill="#f0fdf4"/><text x="300" y="306" fill="#166534">15</text><circle cx="300" cy="317" r="3" fill="#16a34a"/>
    <rect x="340" y="292" width="66" height="34" rx="8" fill="#fffbeb"/><text x="373" y="306" fill="#b45309">16</text><circle cx="373" cy="317" r="3" fill="#f59e0b"/>
    <rect x="413" y="292" width="66" height="34" rx="8" fill="#f0fdf4"/><text x="446" y="306" fill="#166534">17</text><circle cx="446" cy="317" r="3" fill="#16a34a"/>
    <text x="519" y="306" fill="#94a3b8">18</text>
    <!-- Row 3 -->
    <text x="81" y="347" fill="#94a3b8">19</text>
    <rect x="121" y="333" width="66" height="34" rx="8" fill="#f0fdf4"/><text x="154" y="347" fill="#166534">20</text><circle cx="154" cy="358" r="3" fill="#16a34a"/>
    <rect x="194" y="333" width="66" height="34" rx="8" fill="#f0fdf4"/><text x="227" y="347" fill="#166534">21</text><circle cx="227" cy="358" r="3" fill="#16a34a"/>
    <rect x="267" y="333" width="66" height="34" rx="8" fill="#fef2f2"/><text x="300" y="347" fill="#b91c1c">22</text><circle cx="300" cy="358" r="3" fill="#ef4444"/>
    <rect x="340" y="333" width="66" height="34" rx="8" fill="#fffbeb"/><text x="373" y="347" fill="#b45309">23</text><circle cx="373" cy="358" r="3" fill="#f59e0b"/>
    <rect x="413" y="333" width="66" height="34" rx="8" fill="#f0fdf4"/><text x="446" y="347" fill="#166534">24</text><circle cx="446" cy="358" r="3" fill="#16a34a"/>
    <text x="519" y="347" fill="#94a3b8">25</text>
    <!-- Row 4 -->
    <text x="81" y="388" fill="#94a3b8">26</text>
    <rect x="121" y="374" width="66" height="34" rx="8" fill="#f0fdf4"/><text x="154" y="388" fill="#166534">27</text><circle cx="154" cy="399" r="3" fill="#16a34a"/>
    <text x="227" y="388" fill="#94a3b8">28</text>
    <rect x="340" y="374" width="66" height="34" rx="8" fill="#f0fdf4"/><text x="373" y="388" fill="#166534">29</text><circle cx="373" cy="399" r="3" fill="#16a34a"/>
    <rect x="413" y="374" width="66" height="34" rx="8" fill="#f0fdf4"/><text x="446" y="388" fill="#166534">30</text><circle cx="446" cy="399" r="3" fill="#16a34a"/>
    <text x="519" y="388" fill="#94a3b8">31</text>
  </g>

  <!-- Legend -->
  <line x1="48" y1="424" x2="552" y2="424" stroke="#f1f5f9" stroke-width="1"/>
  <circle cx="64" cy="446" r="4" fill="#16a34a"/>
  <text x="76" y="446" font-family="system-ui, -apple-system, sans-serif" font-size="11.5" fill="#64748b" dominant-baseline="central">Matched</text>
  <circle cx="176" cy="446" r="4" fill="#f59e0b"/>
  <text x="188" y="446" font-family="system-ui, -apple-system, sans-serif" font-size="11.5" fill="#64748b" dominant-baseline="central">Suggested</text>
  <circle cx="308" cy="446" r="4" fill="#ef4444"/>
  <text x="320" y="446" font-family="system-ui, -apple-system, sans-serif" font-size="11.5" fill="#64748b" dominant-baseline="central">Unmatched</text>
  <text x="540" y="446" font-family="system-ui, -apple-system, sans-serif" font-size="11.5" fill="#94a3b8" text-anchor="end" dominant-baseline="central">1 line missing from your books</text>
</svg>
