<svg xmlns="http://www.w3.org/2000/svg" viewBox="0 0 600 500" fill="none">
  <defs>
    <linearGradient id="bgGrad" x1="0" y1="0" x2="600" y2="500" gradientUnits="userSpaceOnUse">
      <stop offset="0%" stop-color="#eff6ff"/>
      <stop offset="100%" stop-color="#f5f3ff"/>
    </linearGradient>
    <filter id="cardShadow" x="-10%" y="-5%" width="120%" height="115%">
      <feDropShadow dx="0" dy="4" stdDeviation="12" flood-color="#000" flood-opacity="0.08"/>
    </filter>
    <linearGradient id="payBtnGrad" x1="0%" y1="0%" x2="100%" y2="0%">
      <stop offset="0%" stop-color="#6366f1"/>
      <stop offset="100%" stop-color="#8b5cf6"/>
    </linearGradient>
  </defs>

  <!-- Background -->
  <rect width="600" height="500" rx="24" fill="url(#bgGrad)"/>

  <!-- Subtle grid -->
  <g opacity="0.03" stroke="#6366f1" stroke-width="1">
    <line x1="0" y1="100" x2="600" y2="100"/><line x1="0" y1="200" x2="600" y2="200"/>
    <line x1="0" y1="300" x2="600" y2="300"/><line x1="0" y1="400" x2="600" y2="400"/>
    <line x1="100" y1="0" x2="100" y2="500"/><line x1="200" y1="0" x2="200" y2="500"/>
    <line x1="300" y1="0" x2="300" y2="500"/><line x1="400" y1="0" x2="400" y2="500"/>
    <line x1="500" y1="0" x2="500" y2="500"/>
  </g>

  <!-- Decorative circles -->
  <circle cx="90" cy="80" r="40" fill="#6366f1" opacity="0.04"/>
  <circle cx="510" cy="420" r="45" fill="#8b5cf6" opacity="0.04"/>

  <!-- Main card -->
  <g filter="url(#cardShadow)">
    <rect x="120" y="40" width="360" height="420" rx="16" fill="white"/>
  </g>

  <!-- Header -->
  <text x="155" y="80" font-family="system-ui, -apple-system, sans-serif" font-size="18" font-weight="700" fill="#1e293b">Pay This Invoice</text>
  <text x="155" y="100" font-family="system-ui, -apple-system, sans-serif" font-size="12" fill="#64748b">Amount due: </text>
  <text x="238" y="100" font-family="system-ui, -apple-system, sans-serif" font-size="12" font-weight="700" fill="#1e293b">CA$90.10 CAD</text>

  <line x1="145" y1="114" x2="455" y2="114" stroke="#e2e8f0" stroke-width="1"/>

  <!-- Invoice details mini card -->
  <rect x="145" y="126" width="310" height="60" rx="10" fill="#f8fafc" stroke="#e2e8f0" stroke-width="1"/>
  <text x="165" y="148" font-family="system-ui, -apple-system, sans-serif" font-size="9" fill="#94a3b8" font-weight="600">FROM</text>
  <text x="165" y="162" font-family="system-ui, -apple-system, sans-serif" font-size="11" fill="#1e293b" font-weight="500">SampleCompany</text>
  <text x="300" y="148" font-family="system-ui, -apple-system, sans-serif" font-size="9" fill="#94a3b8" font-weight="600">INVOICE</text>
  <text x="300" y="162" font-family="system-ui, -apple-system, sans-serif" font-size="11" fill="#3b82f6" font-weight="500">#INV-2026-026</text>
  <text x="400" y="148" font-family="system-ui, -apple-system, sans-serif" font-size="9" fill="#94a3b8" font-weight="600">DUE</text>
  <text x="400" y="162" font-family="system-ui, -apple-system, sans-serif" font-size="11" fill="#1e293b" font-weight="500">Apr 24</text>

  <!-- Cardholder Name field -->
  <text x="155" y="212" font-family="system-ui, -apple-system, sans-serif" font-size="11" fill="#374151" font-weight="500">Cardholder Name</text>
  <rect x="145" y="220" width="310" height="36" rx="8" fill="white" stroke="#d1d5db" stroke-width="1"/>
  <text x="162" y="243" font-family="system-ui, -apple-system, sans-serif" font-size="12" fill="#1e293b">Amanda Foster</text>

  <!-- Card Details field -->
  <text x="155" y="278" font-family="system-ui, -apple-system, sans-serif" font-size="11" fill="#374151" font-weight="500">Card Details</text>
  <rect x="145" y="286" width="310" height="36" rx="8" fill="white" stroke="#d1d5db" stroke-width="1"/>
  <!-- Card icon -->
  <rect x="158" y="296" width="28" height="16" rx="3" fill="#e2e8f0"/>
  <rect x="161" y="302" width="8" height="4" rx="1" fill="#94a3b8"/>
  <rect x="172" y="302" width="4" height="4" rx="1" fill="#94a3b8"/>
  <text x="196" y="309" font-family="system-ui, -apple-system, sans-serif" font-size="12" fill="#94a3b8">Card number</text>

  <!-- Email field -->
  <text x="155" y="346" font-family="system-ui, -apple-system, sans-serif" font-size="11" fill="#374151" font-weight="500">Email Address <tspan font-size="9" fill="#94a3b8">(for receipt)</tspan></text>
  <rect x="145" y="354" width="310" height="36" rx="8" fill="white" stroke="#d1d5db" stroke-width="1"/>
  <text x="162" y="377" font-family="system-ui, -apple-system, sans-serif" font-size="12" fill="#1e293b">amanda@fosterrealty.com</text>

  <!-- Pay button -->
  <rect x="145" y="406" width="310" height="40" rx="10" fill="url(#payBtnGrad)"/>
  <text x="300" y="431" font-family="system-ui, -apple-system, sans-serif" font-size="13" font-weight="700" fill="white" text-anchor="middle">Pay CA$90.10 CAD</text>
</svg>
